# xmcd
#
# Track frame offsets: 
#        150
#        16560
#        37343
#        54990
#        72883
#        90910
#        114690
#        134830
#        151893
#        164118
#        181140
#        207140
#        229175
#        250935
#        276828
#        299028
#
# Disc length: 4162 seconds
#
# Revision: 0
# Processed by: cddbd v1.5.2PL0 Copyright (c) Steve Scherf et al.
# Submitted via: ExactAudioCopy v1.0b3
#
DISCID=e9104010
DTITLE=やしきたかじん - ～わが輩は歌手である～ やしきたかじん ソング＆トーク ライヴ (+2)
DYEAR=1988
DGENRE=Pops
TTITLE0=Guilty
TTITLE1=雨の日はバラードで
TTITLE2=たかじんトーク その①
TTITLE3=空車
TTITLE4=未練～STILL～
TTITLE5=たかじんトーク その②
TTITLE6=ラブ･イズ･オーヴァー
TTITLE7=時は過ぎてゆく
TTITLE8=愛の幕切れ
TTITLE9=サンジャンの私の恋人
TTITLE10=たかじんトーク その③
TTITLE11=やっぱ好きやねん
TTITLE12=あんた
TTITLE13=明日になれば
TTITLE14=なめとんか（カラオケ）
TTITLE15=晴れときどきTAKAJIN（カラオケ）
EXTD=
EXTT0=
EXTT1=
EXTT2=
EXTT3=
EXTT4=
EXTT5=
EXTT6=
EXTT7=
EXTT8=
EXTT9=
EXTT10=
EXTT11=
EXTT12=
EXTT13=
EXTT14=
EXTT15=
PLAYORDER=
